<?xml version="1.0" encoding="UTF-8" standalone="no"?>
<svg
   viewBox="0 0 576 512"
   version="1.1"
   id="svg184"
   sodipodi:docname="frog-solid.svg"
   inkscape:export-filename="frog-solid.png"
   inkscape:export-xdpi="96"
   inkscape:export-ydpi="96"
   inkscape:version="1.2.1 (9c6d41e4, 2022-07-14)"
   xmlns:inkscape="http://www.inkscape.org/namespaces/inkscape"
   xmlns:sodipodi="http://sodipodi.sourceforge.net/DTD/sodipodi-0.dtd"
   xmlns="http://www.w3.org/2000/svg"
   xmlns:svg="http://www.w3.org/2000/svg">
  <defs
     id="defs188" />
  <sodipodi:namedview
     id="namedview186"
     pagecolor="#ffffff"
     bordercolor="#000000"
     borderopacity="0.25"
     inkscape:showpageshadow="2"
     inkscape:pageopacity="0.0"
     inkscape:pagecheckerboard="0"
     inkscape:deskcolor="#d1d1d1"
     showgrid="false"
     inkscape:zoom="0.4609375"
     inkscape:cx="98.711864"
     inkscape:cy="262.50847"
     inkscape:window-width="1309"
     inkscape:window-height="742"
     inkscape:window-x="54"
     inkscape:window-y="25"
     inkscape:window-maximized="0"
     inkscape:current-layer="svg184" />
  <!--!Font Awesome Free 6.7.1 by @fontawesome - https://fontawesome.com License - https://fontawesome.com/license/free Copyright 2024 Fonticons, Inc.-->
  <path
     d="M368 32c41.7 0 75.9 31.8 79.7 72.5l85.6 26.3c25.4 7.8 42.8 31.3 42.8 57.9c0 21.8-11.7 41.9-30.7 52.7L400.8 323.5 493.3 416l50.7 0c17.7 0 32 14.3 32 32s-14.3 32-32 32l-64 0c-8.5 0-16.6-3.4-22.6-9.4L346.9 360.2c11.7-36 3.2-77.1-25.4-105.7c-40.6-40.6-106.3-40.6-146.9-.1L101 324.4c-6.4 6.1-6.7 16.2-.6 22.6s16.2 6.6 22.6 .6l73.8-70.2 .1-.1 .1-.1c3.5-3.5 7.3-6.6 11.3-9.2c27.9-18.5 65.9-15.4 90.5 9.2c24.7 24.7 27.7 62.9 9 90.9c-2.6 3.8-5.6 7.5-9 10.9L261.8 416l90.2 0c17.7 0 32 14.3 32 32s-14.3 32-32 32L64 480c-35.3 0-64-28.7-64-64C0 249.6 127 112.9 289.3 97.5C296.2 60.2 328.8 32 368 32zm0 104a24 24 0 1 0 0-48 24 24 0 1 0 0 48z"
     id="path182"
     style="fill:#17b7d6;fill-opacity:1" />
</svg>
